<svg xmlns="http://www.w3.org/2000/svg" width="300" height="300" viewBox="0 0 300 300">
    <path fill="#EEE" fill-rule="evenodd" d="M0 150C0 67.162 67.163 0 150 0s150 67.162 150 150-67.163 150-150 150S0 232.838 0 150zm275 0c0-68.925-56.076-125-125-125S25 81.075 25 150s56.076 125 125 125 125-56.075 125-125zM133.624 94.075C132.387 83.987 140.224 75 150.475 75c9.638 0 17.212 8.45 16 18.138l-9.462 75.662A7.074 7.074 0 0 1 150 175c-3.563 0-6.575-2.662-7.025-6.2l-9.35-74.725zm.751 118.425c0 8.625 7 15.625 15.625 15.625 8.626 0 15.625-7 15.625-15.625s-7-15.625-15.625-15.625c-8.626 0-15.625 7-15.625 15.625z" opacity=".304"/>
</svg>
