<svg xmlns="http://www.w3.org/2000/svg" width="237" height="224" viewBox="0 0 237 224">
    <path fill="#EEE" fill-rule="evenodd" d="M59.11 0H37.692c23.76 19.839 38.82 49.43 38.82 82.718 0 33.29-15.06 63.215-38.82 82.718H59.11c20.08-21.857 32.127-50.774 32.127-82.718C91.571 50.774 79.19 21.856 59.11 0zM37.692 20.174V45.73c6.024 11.096 9.37 23.537 9.37 36.987 0 13.45-3.346 25.892-9.37 36.988v25.556c15.06-16.477 24.095-38.334 24.095-62.544 0-23.874-9.036-46.066-24.095-62.543zM134.427 0c32.808 0 59.59 26.91 59.59 60.21 0 24.219-13.726 44.738-34.147 54.492l33.812 51.128h-54.234l-36.49-54.828c2.009-8.746 3.013-18.163 3.013-27.582h17.408c14.061 0 25.443-10.091 25.443-22.873 0-12.782-11.382-22.873-25.443-22.873H98.271C93.585 23.882 86.89 11.437 78.185 0h56.242zm-34.49 165.436v-41.695c-4.684 15.468-12.047 29.59-21.417 42.031h21.418v-.336zm19.206 30.913c-8.274 0-14.525 5.894-14.525 13.63 0 7.92 6.251 13.814 14.525 13.814 8.274 0 14.525-5.893 14.525-13.814 0-7.736-6.25-13.63-14.525-13.63zm0 21.92c-4.045 0-7.538-3.5-7.538-8.106 0-4.605 3.493-7.92 7.538-7.92s7.538 3.5 7.538 7.92c0 4.605-3.309 8.105-7.538 8.105zm51.115.736l-4.046-4.237c-1.838 2.026-4.412 3.132-6.987 3.5-4.228 0-7.538-3.316-7.538-7.92 0-4.605 3.31-7.92 7.538-7.92 2.39 0 4.965 1.29 6.803 3.499l4.045-4.789c-2.757-2.763-6.803-4.605-10.848-4.605-8.09 0-14.341 5.895-14.341 13.631 0 7.92 6.068 13.814 14.158 13.814 4.045 0 8.274-2.027 11.216-4.973zm17.834-22.656c-8.274 0-14.525 5.894-14.525 13.63 0 7.92 6.251 13.814 14.525 13.814 8.274 0 14.526-5.893 14.526-13.814 0-7.736-6.068-13.63-14.526-13.63zm-7.538 13.814c0 4.605 3.494 8.105 7.538 8.105 4.23 0 7.539-3.5 7.539-8.105 0-4.42-3.494-7.92-7.539-7.92-4.044 0-7.538 3.315-7.538 7.92zm-38.06 10.5c0 1.84-1.287 3.315-3.31 3.315-1.838 0-3.125-1.29-3.125-3.315 0-1.842 1.287-3.132 3.126-3.132 2.022 0 3.31 1.29 3.31 3.132zm-115.466 3.13l11.583-27.076h7.171l11.4 27.076h-7.538l-1.84-4.973H36.222l-2.022 4.973h-7.17zM38.06 213.48l3.861-9.394 3.677 9.394H38.06zm61.042-16.762h-6.803v27.076h6.803v-27.076zm137.898 0v27.076h-6.067v-17.497l-6.435 14.918h-4.413l-6.435-14.918v17.497h-6.069v-27.076h7.539l7.354 16.025 7.355-16.025H237zm-175.774 0H72.81c8.457 0 14.157 5.526 14.342 13.63 0 7.92-5.885 13.446-14.526 13.446h-11.4v-27.076zm11.584 20.997h-4.965v-14.92h4.597c4.413 0 7.538 2.764 7.538 7.552.184 4.605-2.942 7.368-7.17 7.368zm-61.594-20.997c7.354 0 11.95 3.684 11.95 9.946 0 4.237-2.39 7.184-4.78 8.473l6.252 8.657H16.18l-5.332-7.551H6.987v7.551H0v-27.076h11.216zm.551 13.998H6.803v-7.92h4.78c2.942 0 4.78 1.29 4.78 3.867 0 2.58-1.654 4.053-4.596 4.053z"/>
</svg>
