<svg xmlns="http://www.w3.org/2000/svg" width="212" height="25" viewBox="0 0 212 25">
    <path fill="#EEE" fill-rule="evenodd" d="M94.63 12.425C94.63 5.318 100.29 0 107.838 0c7.547 0 13.207 5.318 13.256 12.425 0 7.157-5.71 12.575-13.256 12.575-7.547 0-13.206-5.418-13.206-12.575zm48.607 6.909c1.985 0 4.32-1.044 6.007-2.783l.149-.1 3.773 3.976-.1.1C150.386 23.31 146.513 25 142.988 25c-7.348 0-12.858-5.418-12.858-12.575 0-7.057 5.61-12.375 13.057-12.375 3.574 0 7.348 1.59 9.83 4.125l.05.05-3.724 4.423-.1-.1c-1.588-1.938-3.872-3.13-6.006-3.13-3.824 0-6.653 2.982-6.653 6.908 0 3.976 2.88 7.008 6.653 7.008zm-35.35.248c-3.724 0-6.752-3.18-6.752-7.107 0-3.976 2.978-7.058 6.752-7.058 3.723 0 6.603 3.082 6.603 7.058s-2.88 7.107-6.603 7.107zm14.646 2.337c0-1.74 1.241-2.983 2.978-2.983 1.788 0 3.03 1.243 3.03 2.983 0 1.789-1.242 3.031-3.03 3.031-1.737 0-2.978-1.242-2.978-3.031zM168.01 0c-7.547 0-13.206 5.318-13.206 12.425 0 7.157 5.66 12.575 13.206 12.575 7.547 0 13.256-5.418 13.256-12.575C181.267 5.318 175.558 0 168.011 0zm-6.703 12.475c0 3.926 3.03 7.107 6.752 7.107 3.725 0 6.604-3.13 6.604-7.107 0-3.976-2.88-7.058-6.604-7.058-3.773 0-6.752 3.082-6.752 7.058zM205.1.25l-6.504 14.264L192.14.298v-.05h-6.951v24.454h5.71V9.394l5.61 12.823.05.1h4.12l5.61-12.923.05 15.208v.1H212V.249h-6.901zm-115.036 0h-6.405V24.75h6.405V.25zm-23.93 0H55.606V24.75h10.277c7.795 0 13.256-5.02 13.256-12.226C79.14 5.269 73.778.249 66.132.249zM61.96 18.887h4.171c3.873 0 6.454-2.585 6.404-6.412 0-3.827-2.68-6.411-6.702-6.411H61.96v12.823zM42.5.249h-7.496l-9.93 24.453h6.702l1.788-4.473h10.326l1.738 4.473h6.703L42.549.298l-.05-.05zm-3.773 5.914l-3.376 9.344h6.752l-3.376-9.344zM0 3.23v3.777a11.32 11.32 0 0 1 1.39 5.467c0 1.988-.496 3.827-1.39 5.467v3.778c2.234-2.436 3.575-5.666 3.575-9.245 0-3.528-1.34-6.809-3.575-9.244zM0 .249h3.177c2.98 3.23 4.816 7.504 4.767 12.226a17.92 17.92 0 0 1-4.767 12.227H0c3.525-2.883 5.76-7.306 5.76-12.227C5.76 7.555 3.524 3.181 0 .25zm23.186 8.896c0-4.92-3.972-8.896-8.838-8.896h-8.34a19.396 19.396 0 0 1 2.978 5.566h3.724c2.085 0 3.773 1.491 3.773 3.38 0 1.889-1.688 3.38-3.773 3.38h-2.581c0 1.391-.15 2.783-.448 4.075l5.412 8.101h8.043l-5.014-7.554c3.028-1.441 5.064-4.473 5.064-8.052zM9.234 18.538v6.213H6.057a19.884 19.884 0 0 0 3.177-6.213z"/>
</svg>
