<svg xmlns="http://www.w3.org/2000/svg" width="168" height="170" viewBox="0 0 168 170">
    <path fill="#EEE" fill-rule="evenodd" d="M124.802 114.14c9.686-12.03 15.483-27.326 15.483-43.975C140.285 31.414 108.882 0 70.143 0 31.403 0 0 31.414 0 70.165c0 38.75 31.404 70.164 70.143 70.164 15.65 0 30.102-5.127 41.771-13.793.27.37.574.724.908 1.059l39.777 39.766c3.522 3.521 9.236 3.518 12.757-.004 3.522-3.52 3.527-9.233.005-12.753l-39.778-39.767c-.25-.25-.51-.482-.78-.696zM70.142 127.3c31.545 0 57.117-25.58 57.117-57.134 0-31.555-25.572-57.135-57.116-57.135-31.545 0-57.117 25.58-57.117 57.135 0 31.554 25.572 57.134 57.117 57.134z" opacity=".2"/>
</svg>
